<svg width="28" height="28" viewBox="0 0 28 28" fill="none" xmlns="http://www.w3.org/2000/svg">
<g clip-path="url(#clip0_93_749)">
<path d="M4.93268 24.1978C4.52212 21.585 6.74167 18.6544 9.92392 17.6131C11.7156 17.0263 11.6936 17.094 10.55 15.7663C8.69066 13.6097 8.50661 11.1857 10.012 8.70026C10.7482 7.48588 10.7482 7.48588 10.4839 5.70521C10.0969 3.1097 10.2118 2.97442 12.09 3.8097C13.2477 4.32566 13.2477 4.32566 14.3111 3.01532C15.7504 1.24251 15.9581 1.25667 17.1032 3.2151C18.077 4.87936 18.0628 4.8715 19.4848 4.31779C21.5235 3.52341 21.6163 3.81757 20.4412 7.36948C19.7381 9.49622 19.6657 9.83442 19.812 10.3299C20.3563 12.1672 19.8592 14.2216 18.4844 15.8214C17.3754 17.1113 17.3644 17.0767 19.0381 17.6398C21.7799 18.5648 23.3214 20.1693 23.8421 22.6373C24.3125 24.8726 24.0214 25.1432 20.5277 25.7079C19.23 25.9187 17.1945 26.1311 16.0053 26.1798C14.8161 26.2286 12.9331 26.1987 11.821 26.1122C7.24504 25.7567 5.08369 25.1558 4.93268 24.1978ZM22.3021 24.1994C23.8453 23.5214 22.0677 20.163 19.5776 19.0524C18.0172 18.3571 17.5437 18.3933 16.7005 19.2758C15.3619 20.6758 13.5812 20.627 12.2803 19.1578C11.4498 18.2187 11.1792 18.214 9.22863 19.109C7.6383 19.8358 6.57807 21.0203 6.20212 22.4895C5.84032 23.9021 5.95672 24.0814 7.45111 24.4149C8.11493 24.5627 9.85942 24.7924 11.3286 24.9261C13.0307 25.0803 14.6414 25.1322 15.7693 25.0708C18.1886 24.9371 21.6855 24.4699 22.3021 24.1994ZM16.2176 18.0252C16.4787 17.3032 16.4237 17.2686 15.365 17.4825C14.7295 17.6099 14.2403 17.6131 13.6473 17.4967C12.6673 17.3016 12.6343 17.3205 12.8277 17.9764C12.9111 18.2596 13.2021 18.6387 13.4884 18.8369C13.77 19.0319 14.2293 19.1908 14.5109 19.1908C15.2392 19.1893 15.9801 18.6843 16.2176 18.0252ZM18.7455 11.1337C18.4608 9.64723 18.3491 9.5906 14.7862 9.05105C11.7187 8.58701 11.7187 8.58701 11.1981 9.19262C9.97425 10.6178 9.9538 13.0088 11.1509 14.5897C11.5552 15.123 12.0853 15.5807 12.6516 15.8875C13.3327 16.254 13.7307 16.3594 14.4322 16.3625C17.1394 16.3719 19.2583 13.8032 18.7455 11.1337ZM19.4156 6.96049C19.8749 5.41577 19.8498 5.36858 18.8084 5.81532C17.5925 6.33599 17.5311 6.30296 16.6408 4.67959C16.2019 3.87892 15.8134 3.18993 15.774 3.14745C15.7363 3.10341 15.3399 3.56116 14.8916 4.16363C13.5608 5.95375 13.5576 5.95532 12.499 5.35757C11.4136 4.74566 11.445 4.7142 11.6826 6.14408C11.876 7.31442 11.8761 7.31442 12.8985 7.56768C13.4617 7.70768 14.8585 7.93734 16.0053 8.07892C17.152 8.22049 18.2956 8.33689 18.5489 8.33689C18.9893 8.33689 19.0239 8.28341 19.4156 6.96049Z" fill="#C3C3C3"/>
<circle cx="15.5" cy="6.5" r="0.5" fill="#C3C3C3"/>
</g>
<defs>
<clipPath id="clip0_93_749">
<rect width="28" height="28" fill="white"/>
</clipPath>
</defs>
</svg>
