<svg width="22" height="22" viewBox="0 0 22 22" fill="none" xmlns="http://www.w3.org/2000/svg">
<path d="M8.80631 20.7493C9.87995 20.7493 10.7503 19.879 10.7503 18.8053C10.7503 17.7317 9.87995 16.8613 8.80631 16.8613C7.73267 16.8613 6.8623 17.7317 6.8623 18.8053C6.8623 19.879 7.73267 20.7493 8.80631 20.7493Z" stroke="#C3C3C3" stroke-width="1.5" stroke-linecap="round" stroke-linejoin="round"/>
<path d="M17.276 20.7493C18.3497 20.7493 19.22 19.879 19.22 18.8053C19.22 17.7317 18.3497 16.8613 17.276 16.8613C16.2024 16.8613 15.332 17.7317 15.332 18.8053C15.332 19.879 16.2024 20.7493 17.276 20.7493Z" stroke="#C3C3C3" stroke-width="1.5" stroke-linecap="round" stroke-linejoin="round"/>
<path d="M4.29972 3.38429L6.59687 10.6575C6.95002 11.7752 7.12602 12.334 7.46545 12.7477C7.76259 13.1135 8.15002 13.3958 8.58774 13.5706C9.08488 13.7683 9.67003 13.7683 10.8426 13.7683H15.2483C16.4209 13.7683 17.006 13.7683 17.502 13.5706C17.9409 13.3958 18.3272 13.1135 18.6255 12.7477C18.9638 12.334 19.1398 11.7752 19.4941 10.6575L19.9615 9.17631L20.2358 8.30088L20.6141 7.10088C20.7491 6.67288 20.7813 6.21909 20.7083 5.7763C20.6352 5.3335 20.4589 4.91414 20.1935 4.5522C19.9282 4.19025 19.5813 3.8959 19.181 3.693C18.7807 3.49009 18.3383 3.38433 17.8895 3.38429H4.29972ZM4.29972 3.38429L4.28715 3.34201C4.23889 3.18036 4.18553 3.02028 4.12715 2.86201C3.89578 2.27634 3.50342 1.76808 2.99541 1.39597C2.4874 1.02386 1.88447 0.803084 1.25629 0.759143C1.13857 0.75 1.00943 0.75 0.75 0.75" stroke="#C3C3C3" stroke-width="1.5" stroke-linecap="round" stroke-linejoin="round"/>
</svg>
