<svg width="40" height="40" viewBox="0 0 40 40" fill="none" xmlns="http://www.w3.org/2000/svg">
<rect width="40" height="40" rx="20" fill="#710014"/>
<path d="M17.6997 8.39199C17.9675 8.09291 18.2954 7.85366 18.6619 7.68986C19.0284 7.52607 19.4254 7.44141 19.8268 7.44141C20.2283 7.44141 20.6252 7.52607 20.9917 7.68986C21.3582 7.85366 21.6861 8.09291 21.9539 8.39199L22.9532 9.50836C23.2388 9.82741 23.5925 10.0781 23.9882 10.242C24.3838 10.4058 24.8112 10.4786 25.2388 10.4548L26.7377 10.372C27.1386 10.3499 27.5397 10.4127 27.9148 10.5561C28.2898 10.6995 28.6304 10.9205 28.9142 11.2044C29.1981 11.4884 29.4189 11.8291 29.5621 12.2042C29.7054 12.5793 29.7679 12.9805 29.7456 13.3814L29.6628 14.8789C29.6393 15.3062 29.7122 15.7334 29.876 16.1287C30.0398 16.5241 30.2904 16.8776 30.6093 17.163L31.7257 18.1623C32.025 18.4301 32.2644 18.7581 32.4284 19.1247C32.5923 19.4914 32.6771 19.8885 32.6771 20.2901C32.6771 20.6918 32.5923 21.0889 32.4284 21.4555C32.2644 21.8222 32.025 22.1501 31.7257 22.4179L30.6093 23.4172C30.2902 23.7029 30.0395 24.0566 29.8757 24.4522C29.7118 24.8478 29.6391 25.2752 29.6628 25.7028L29.7456 27.2018C29.7677 27.6027 29.705 28.0038 29.5616 28.3788C29.4181 28.7539 29.1972 29.0944 28.9132 29.3783C28.6292 29.6622 28.2885 29.8829 27.9134 30.0262C27.5383 30.1694 27.1372 30.232 26.7363 30.2097L25.2388 30.1269C24.8114 30.1034 24.3843 30.1762 23.9889 30.34C23.5936 30.5039 23.2401 30.7545 22.9546 31.0734L21.9553 32.1897C21.6875 32.489 21.3596 32.7285 20.9929 32.8924C20.6263 33.0564 20.2292 33.1411 19.8275 33.1411C19.4259 33.1411 19.0288 33.0564 18.6621 32.8924C18.2955 32.7285 17.9675 32.489 17.6997 32.1897L16.7004 31.0734C16.4148 30.7543 16.0611 30.5036 15.6655 30.3397C15.2698 30.1759 14.8424 30.1031 14.4149 30.1269L12.9159 30.2097C12.515 30.2318 12.1139 30.1691 11.7388 30.0256C11.3638 29.8822 11.0232 29.6613 10.7394 29.3773C10.4555 29.0933 10.2347 28.7526 10.0915 28.3775C9.94823 28.0024 9.8857 27.6013 9.90799 27.2003L9.99079 25.7028C10.0143 25.2755 9.94145 24.8483 9.77762 24.453C9.61379 24.0576 9.36317 23.7041 9.04431 23.4187L7.92794 22.4194C7.62862 22.1516 7.38917 21.8236 7.22524 21.457C7.0613 21.0903 6.97656 20.6932 6.97656 20.2916C6.97656 19.8899 7.0613 19.4928 7.22524 19.1262C7.38917 18.7595 7.62862 18.4316 7.92794 18.1638L9.04431 17.1645C9.36337 16.8789 9.6141 16.5251 9.77793 16.1295C9.94177 15.7339 10.0145 15.3065 9.99079 14.8789L9.90799 13.3799C9.8861 12.9791 9.94897 12.5782 10.0925 12.2033C10.236 11.8285 10.457 11.4881 10.741 11.2044C11.0249 10.9207 11.3655 10.7 11.7405 10.5569C12.1156 10.4137 12.5165 10.3512 12.9173 10.3735L14.4149 10.4563C14.8422 10.4798 15.2693 10.4069 15.6647 10.2431C16.0601 10.0793 16.4135 9.82865 16.699 9.50978L17.6997 8.39199Z" stroke="#F2F1ED" stroke-width="2"/>
<path d="M16.2578 16.7227H16.2721V16.7369H16.2578V16.7227ZM23.3957 23.8605H23.41V23.8748H23.3957V23.8605Z" stroke="#F2F1ED" stroke-width="3" stroke-linejoin="round"/>
<path d="M24.1094 16.0088L15.5439 24.5743" stroke="#F2F1ED" stroke-width="2" stroke-linecap="round" stroke-linejoin="round"/>
</svg>
