<svg width="21" height="24" viewBox="0 0 21 24" fill="none" xmlns="http://www.w3.org/2000/svg">
<path d="M13.7185 23.9998C13.3573 23.9977 13.0024 23.9119 12.6869 23.7506C12.3713 23.5892 12.1053 23.3574 11.9133 23.0766C9.82627 20.0668 7.94784 16.9394 6.28916 13.7129L5.66537 13.5731C5.05583 13.4202 4.49422 13.1375 4.0262 12.7479C3.55817 12.3583 3.19695 11.8729 2.97189 11.3311L0.26978 4.82271C0.0524181 4.30763 -0.0353979 3.75417 0.0128824 3.2036C0.0611628 2.65303 0.244294 2.11958 0.548615 1.64301L0.89069 1.1023C1.01409 0.90858 1.1909 0.748092 1.40334 0.636968C1.61578 0.525844 1.85636 0.468002 2.10089 0.469258H2.11814C2.3663 0.470538 2.60963 0.532261 2.82327 0.648119C3.03691 0.763976 3.21319 0.929812 3.33408 1.12867L15.6143 21.1274C15.7504 21.3485 15.8353 21.5929 15.8637 21.8455C15.8921 22.098 15.8635 22.3533 15.7796 22.5952C15.6161 23.0812 15.2561 23.4913 14.7735 23.7413C14.4522 23.9098 14.0886 23.9989 13.7185 23.9998ZM2.10089 1.45838C2.04438 1.45774 1.9887 1.47082 1.93948 1.4963C1.89025 1.52178 1.84925 1.55874 1.82062 1.60345L1.47998 2.14153C1.25681 2.49102 1.12266 2.88229 1.08756 3.28607C1.05247 3.68985 1.11734 4.09569 1.27732 4.47322L3.98087 10.9829C4.14452 11.3791 4.40796 11.7341 4.74967 12.019C5.09139 12.3039 5.50169 12.5106 5.94708 12.6223L6.80946 12.8306C6.88483 12.8491 6.955 12.8823 7.01524 12.9278C7.07549 12.9733 7.12441 13.0301 7.15872 13.0944C8.82691 16.3508 10.7183 19.5069 12.8216 22.5438C12.9649 22.7583 13.1932 22.9134 13.4586 22.9766C13.724 23.0398 14.0057 23.0062 14.2446 22.8827C14.4891 22.759 14.6716 22.5528 14.7534 22.3077C14.7929 22.194 14.8064 22.0741 14.793 21.9554C14.7797 21.8367 14.7397 21.7218 14.6757 21.618L2.39553 1.61664C2.36822 1.56705 2.32589 1.52574 2.27363 1.49767C2.22137 1.4696 2.16139 1.45596 2.10089 1.45838Z" fill="#161616"/>
<path d="M4.67759 24C4.28781 24.0009 3.90568 23.9007 3.57518 23.7111C3.10414 23.4531 2.76004 23.038 2.61486 22.5525C2.46967 22.0671 2.53464 21.549 2.79617 21.1065C4.02649 19.0293 5.4954 16.7794 7.0448 14.5941C7.12295 14.4841 7.24552 14.4071 7.38555 14.38C7.52557 14.3529 7.67159 14.378 7.79148 14.4497C7.91136 14.5214 7.9953 14.6338 8.02481 14.7623C8.05433 14.8908 8.02701 15.0248 7.94886 15.1348C6.41527 17.2964 4.96073 19.5252 3.75197 21.576C3.62306 21.7959 3.59176 22.053 3.66461 22.2936C3.73746 22.5342 3.90883 22.7397 4.14291 22.8671C4.37257 22.9985 4.64933 23.0417 4.91342 22.9874C5.1775 22.9331 5.40772 22.7857 5.55433 22.5769C6.58775 21.1447 7.68009 19.5159 8.80549 17.7303C8.87953 17.6215 8.99669 17.5435 9.13227 17.5125C9.26784 17.4815 9.41123 17.5 9.53221 17.5641C9.65318 17.6283 9.74229 17.733 9.78073 17.8563C9.81918 17.9795 9.80396 18.1117 9.73829 18.2248C8.60139 20.0277 7.49899 21.6735 6.45839 23.1163C6.26657 23.3892 6.0028 23.6133 5.69151 23.7677C5.38022 23.9222 5.03147 24.0021 4.67759 24ZM9.46664 12.6224C9.39625 12.6231 9.32641 12.611 9.26115 12.5868C9.19588 12.5626 9.13648 12.5268 9.08637 12.4815C9.03627 12.4361 8.99644 12.3821 8.9692 12.3225C8.94196 12.263 8.92784 12.1991 8.92766 12.1345V12.1226C8.9279 12.023 8.96042 11.9256 9.02108 11.843C9.81878 10.7774 10.5015 9.88719 11.0074 9.22909C10.5923 8.90962 10.3141 8.46532 10.2225 7.97531C10.1309 7.48529 10.2318 6.98135 10.5072 6.55319L14.6466 0.222823C14.7234 0.116054 14.8421 0.0406315 14.9781 0.0123101C15.114 -0.0160113 15.2566 0.00495982 15.3761 0.0708424C15.4956 0.136725 15.5827 0.242423 15.6193 0.365854C15.6558 0.489285 15.639 0.620903 15.5723 0.733209L11.4329 7.06358C11.3513 7.18786 11.2974 7.32576 11.2743 7.4693C11.2512 7.61283 11.2595 7.75914 11.2985 7.89974C11.3376 8.04033 11.4066 8.17242 11.5017 8.28833C11.5968 8.40423 11.7161 8.50166 11.8525 8.57496L12.0437 8.6831C12.1062 8.71855 12.1602 8.76541 12.2022 8.82076C12.2443 8.8761 12.2735 8.93878 12.288 9.00489C12.3031 9.07095 12.303 9.13915 12.2879 9.20519C12.2728 9.27124 12.243 9.33371 12.2004 9.38867L12.0566 9.5865C11.545 10.2459 10.8091 11.2073 9.93232 12.3798C9.88426 12.4538 9.81607 12.515 9.73444 12.5576C9.6528 12.6001 9.56052 12.6225 9.46664 12.6224ZM11.1468 15.3471C11.058 15.3467 10.9707 15.3264 10.8924 15.2878C10.7668 15.2257 10.6731 15.1205 10.6319 14.9952C10.5906 14.8698 10.6053 14.7346 10.6725 14.6191C11.7606 12.7556 12.7336 11.0214 13.2769 9.98214C13.3093 9.91899 13.3559 9.86283 13.4136 9.81737C13.4713 9.77191 13.5388 9.73817 13.6118 9.71838C13.6836 9.69836 13.7592 9.69271 13.8336 9.70182C13.908 9.71092 13.9794 9.73455 14.043 9.77113L14.2298 9.87664C14.3644 9.95278 14.5141 10.0037 14.6703 10.0263C14.8265 10.0489 14.986 10.0429 15.1396 10.0085C15.2914 9.97383 15.4341 9.91176 15.5595 9.82595C15.6848 9.74013 15.7903 9.63229 15.8698 9.50869L20.0092 3.17831C20.0859 3.07155 20.2047 2.99612 20.3406 2.9678C20.4766 2.93948 20.6192 2.96045 20.7386 3.02633C20.8581 3.09222 20.9452 3.19791 20.9818 3.32135C21.0183 3.44478 21.0015 3.57639 20.9348 3.6887L16.7983 10.0125C16.6459 10.2475 16.4442 10.4525 16.2049 10.6155C15.9656 10.7785 15.6934 10.8963 15.4041 10.962C14.9378 11.0673 14.4472 11.0359 14.0013 10.8724C13.4264 11.9366 12.564 13.4612 11.6226 15.0807C11.5774 15.1608 11.5091 15.228 11.4253 15.2749C11.3414 15.3219 11.2451 15.3469 11.1468 15.3471Z" fill="#161616"/>
<path d="M13.7651 6.75506C13.6673 6.75466 13.5715 6.73006 13.4877 6.68385C13.3656 6.61646 13.2776 6.50746 13.2428 6.38068C13.2081 6.2539 13.2295 6.11965 13.3023 6.00729L16.437 1.2094C16.5104 1.09677 16.6295 1.0155 16.7682 0.983472C16.9069 0.951443 17.0538 0.971276 17.1765 1.03861C17.2992 1.10594 17.3878 1.21525 17.4227 1.3425C17.4576 1.46975 17.436 1.60452 17.3626 1.71714L14.2279 6.51372C14.1805 6.58753 14.1128 6.64865 14.0316 6.691C13.9504 6.73334 13.8585 6.75543 13.7651 6.75506ZM15.5516 7.73759C15.4543 7.73761 15.3588 7.71297 15.2757 7.66637C15.2151 7.63313 15.1622 7.58925 15.1201 7.53725C15.078 7.48526 15.0475 7.42616 15.0303 7.36333C15.013 7.30051 15.0095 7.23519 15.0198 7.1711C15.0301 7.10701 15.054 7.04541 15.0903 6.98982L18.225 2.19192C18.2599 2.13356 18.3072 2.08226 18.3641 2.04107C18.4211 1.99989 18.4865 1.96968 18.5565 1.95225C18.6265 1.93482 18.6996 1.93052 18.7714 1.93963C18.8433 1.94873 18.9124 1.97104 18.9746 2.00522C19.0368 2.03941 19.0909 2.08476 19.1335 2.13856C19.1762 2.19237 19.2066 2.25352 19.2229 2.31836C19.2392 2.3832 19.2411 2.45039 19.2284 2.51591C19.2157 2.58143 19.1888 2.64393 19.1492 2.69967L16.0159 7.49625C15.9681 7.57007 15.9001 7.63117 15.8187 7.6735C15.7373 7.71583 15.6452 7.73792 15.5516 7.73759Z" fill="#161616"/>
</svg>
