<svg width="28" height="28" viewBox="0 0 28 28" fill="none" xmlns="http://www.w3.org/2000/svg">
<g clip-path="url(#clip0_1_323)">
<path d="M10.6036 14.964C10.8716 14.9725 10.9753 14.9429 11.0797 14.8272C11.2638 14.6234 11.2659 14.6304 10.787 13.8193C8.63586 10.1772 10.4837 5.41511 14.5342 4.16251C18.3731 2.97551 22.3135 5.22398 23.1401 9.07133C24.3836 14.8646 17.9979 19.3467 13.0277 16.1687C12.3647 15.7448 12.1658 15.8428 12.1658 16.5925C12.1658 16.9847 12.1411 17.0771 12.0043 17.2026C11.9155 17.2837 11.7963 17.35 11.7398 17.35C11.6834 17.35 11.2405 16.9417 10.7553 16.4416C9.6282 15.2807 9.59223 14.9295 10.6036 14.964ZM10.99 10.5504C10.99 12.0249 11.5758 13.4391 12.6185 14.4818C13.6611 15.5244 15.0753 16.1102 16.5498 16.1102C18.0244 16.1102 19.4385 15.5244 20.4812 14.4818C21.5239 13.4391 22.1096 12.0249 22.1096 10.5504C22.1096 9.07584 21.5239 7.66169 20.4812 6.61902C19.4385 5.57636 18.0244 4.9906 16.5498 4.9906C15.0753 4.9906 13.6611 5.57636 12.6185 6.61902C11.5758 7.66169 10.99 9.07584 10.99 10.5504Z" fill="#C3C3C3"/>
<path d="M3.33692 22.4585C3.38135 22.1108 3.38135 22.1108 6.50155 19.0223L9.62176 15.9346L11.2291 17.5419C5.86609 23.7844 5.61642 24.0539 5.32231 24.1533C5.14669 24.2133 4.90901 24.2619 4.79405 24.2619C4.67838 24.2619 4.44211 24.1949 4.26861 24.1131C3.60846 23.8028 3.24664 23.1603 3.33692 22.4585ZM8.25067 19.3298C8.32614 19.0505 8.35435 19.0259 8.76695 18.8799C9.20422 18.7254 9.20422 18.7254 9.42357 18.1964C9.68029 17.5765 9.68171 17.5779 9.08926 17.8015C8.55888 18.0011 8.49823 18.0603 8.36211 18.5103C8.27183 18.81 8.23092 18.8552 7.95727 18.949C7.53551 19.0943 7.41702 19.2212 7.22236 19.7389C7.12926 19.9858 7.05309 20.2002 7.05309 20.215C7.05309 20.2298 7.2675 20.1635 7.52916 20.0676C8.03909 19.8814 8.12654 19.7911 8.25067 19.3298Z" fill="#C3C3C3"/>
<path d="M20.6633 10.5998C20.6562 8.28221 18.8683 6.55284 16.4485 6.52322C15.5083 6.51194 15.3623 6.46116 15.4822 6.1868C15.6903 5.71355 17.0614 5.64584 18.2314 6.05138C19.5581 6.51123 20.6626 7.61148 21.1005 8.90922C21.3763 9.72524 21.4617 10.817 21.2719 11.1062C21.1993 11.2176 21.0893 11.2846 20.9807 11.2846C20.8777 11.2846 20.7768 11.2275 20.7352 11.1464C20.6964 11.0702 20.664 10.8241 20.6633 10.5998Z" fill="#C3C3C3"/>
</g>
<defs>
<clipPath id="clip0_1_323">
<rect width="28" height="28" fill="white"/>
</clipPath>
</defs>
</svg>
