<svg width="24" height="24" viewBox="0 0 24 24" fill="none" xmlns="http://www.w3.org/2000/svg">
<path d="M12 24C5.36095 24 0 18.6036 0 12C0 5.36095 5.39645 0 12 0C18.6035 0 24 5.39645 24 12C24 18.6036 18.6391 24 12 24ZM12 1.27811C6.10651 1.27811 1.27811 6.071 1.27811 11.9645C1.27811 17.858 6.071 22.6864 12 22.6864C17.929 22.6864 22.7219 17.8935 22.7219 11.9645C22.7219 6.071 17.8935 1.27811 12 1.27811Z" fill="#F2F1ED"/>
<path d="M16.2588 16.8637C16.0813 16.8637 15.9393 16.7927 15.7972 16.6861L11.5369 12.4258C11.4304 12.3193 11.3594 12.1418 11.3594 11.9642V4.1891C11.3594 3.83407 11.6434 3.55005 11.9984 3.55005C12.3535 3.55005 12.6375 3.83407 12.6375 4.1891V11.7157L16.6848 15.7631C16.9333 16.0116 16.9333 16.4376 16.6848 16.6861C16.5783 16.7927 16.4008 16.8637 16.2588 16.8637Z" fill="#F2F1ED"/>
</svg>
